<?xml version="1.0" encoding="utf-8" ?>
<svg baseProfile="full" height="1024" version="1.1" width="1024" xmlns="http://www.w3.org/2000/svg" xmlns:ev="http://www.w3.org/2001/xml-events" xmlns:xlink="http://www.w3.org/1999/xlink"><defs /><path d="M 332 677 L 324 677 L 313 680 L 300 681 L 299 682 L 293 682 L 292 683 L 286 683 L 278 685 L 245 687 L 244 688 L 237 688 L 230 690 L 229 689 L 228 690 L 227 689 L 222 689 L 221 690 L 219 689 L 218 690 L 207 690 L 206 691 L 188 691 L 187 692 L 182 692 L 175 694 L 156 694 L 152 697 L 151 701 L 152 721 L 151 724 L 152 727 L 157 732 L 172 730 L 173 729 L 185 729 L 193 727 L 213 726 L 214 725 L 227 724 L 228 723 L 230 723 L 232 725 L 232 759 L 233 760 L 232 763 L 232 795 L 233 796 L 232 797 L 233 799 L 232 818 L 233 819 L 233 833 L 232 834 L 231 857 L 232 860 L 235 863 L 242 864 L 248 862 L 263 860 L 267 857 L 269 853 L 269 847 L 267 840 L 267 835 L 268 834 L 268 818 L 267 816 L 268 815 L 267 814 L 267 763 L 266 762 L 266 740 L 267 739 L 266 738 L 266 723 L 270 720 L 278 719 L 279 718 L 301 717 L 302 716 L 320 715 L 321 714 L 330 714 L 331 715 L 334 713 L 334 708 L 336 705 L 337 682 Z" fill="black" fill-rule="evenodd" /><path d="M 502 672 L 473 671 L 428 675 L 396 675 L 390 673 L 383 673 L 376 678 L 374 772 L 374 856 L 380 860 L 413 859 L 471 854 L 499 848 L 504 849 L 511 845 L 512 821 L 511 816 L 507 813 L 481 817 L 466 821 L 457 821 L 442 824 L 426 824 L 417 826 L 409 826 L 406 824 L 405 821 L 405 801 L 407 787 L 427 784 L 435 781 L 452 780 L 457 778 L 474 776 L 478 774 L 481 768 L 478 750 L 474 746 L 444 751 L 432 751 L 416 755 L 407 755 L 405 753 L 406 708 L 408 706 L 442 706 L 456 703 L 464 704 L 470 702 L 488 702 L 498 700 L 505 694 L 506 680 Z" fill="black" fill-rule="evenodd" /><path d="M 644 667 L 632 672 L 622 672 L 611 674 L 604 679 L 591 685 L 575 699 L 568 709 L 562 715 L 558 721 L 553 741 L 551 744 L 548 756 L 549 757 L 546 771 L 546 779 L 547 780 L 547 797 L 554 818 L 559 826 L 572 841 L 586 850 L 597 855 L 623 860 L 643 859 L 647 857 L 650 857 L 670 846 L 683 834 L 691 824 L 700 808 L 699 801 L 695 796 L 686 791 L 679 791 L 673 794 L 667 807 L 652 819 L 637 826 L 622 827 L 610 824 L 598 817 L 591 810 L 591 808 L 585 798 L 585 792 L 582 783 L 584 751 L 587 742 L 594 728 L 599 721 L 609 711 L 618 707 L 626 705 L 633 705 L 638 713 L 642 724 L 647 730 L 650 731 L 656 730 L 665 726 L 669 719 L 669 711 L 664 697 L 663 689 L 654 671 L 651 668 Z" fill="black" fill-rule="evenodd" /><path d="M 853 662 L 849 660 L 835 660 L 828 663 L 825 668 L 824 675 L 825 701 L 822 727 L 809 729 L 800 733 L 790 734 L 789 733 L 784 735 L 764 738 L 751 737 L 751 725 L 754 710 L 755 690 L 759 672 L 758 666 L 754 663 L 733 662 L 725 666 L 723 670 L 724 687 L 720 718 L 720 787 L 718 803 L 719 824 L 716 845 L 718 851 L 725 854 L 735 854 L 747 851 L 750 846 L 749 827 L 751 817 L 751 773 L 753 771 L 780 768 L 798 764 L 813 764 L 816 762 L 822 762 L 825 767 L 824 820 L 826 848 L 832 851 L 847 851 L 853 849 L 858 844 L 855 778 L 856 746 L 855 706 L 858 668 Z" fill="black" fill-rule="evenodd" /><path d="M 715 453 L 709 450 L 701 450 L 682 458 L 677 463 L 664 486 L 654 522 L 647 536 L 645 535 L 641 524 L 637 499 L 625 469 L 619 459 L 616 457 L 604 455 L 596 457 L 591 462 L 584 483 L 583 496 L 581 500 L 581 514 L 574 555 L 568 624 L 569 631 L 571 633 L 585 635 L 593 627 L 602 567 L 604 537 L 608 521 L 610 520 L 612 522 L 623 559 L 631 575 L 638 582 L 645 585 L 651 585 L 655 583 L 659 577 L 692 495 L 697 489 L 700 491 L 702 502 L 701 524 L 706 628 L 711 636 L 718 638 L 728 637 L 734 629 L 730 519 L 724 475 L 720 460 Z" fill="black" fill-rule="evenodd" /><path d="M 508 444 L 502 444 L 499 446 L 497 446 L 487 451 L 476 464 L 472 472 L 470 474 L 469 477 L 464 483 L 464 486 L 462 489 L 462 491 L 457 501 L 457 504 L 455 508 L 455 511 L 454 512 L 454 514 L 453 515 L 453 517 L 451 521 L 450 529 L 449 530 L 449 534 L 448 535 L 448 538 L 447 539 L 447 543 L 446 544 L 446 546 L 445 547 L 445 551 L 444 552 L 444 557 L 443 558 L 442 569 L 441 570 L 441 575 L 442 576 L 442 588 L 445 594 L 445 596 L 448 601 L 448 603 L 450 605 L 452 609 L 453 613 L 464 625 L 465 625 L 470 629 L 474 630 L 475 631 L 478 631 L 479 632 L 483 632 L 484 633 L 497 633 L 498 632 L 501 632 L 507 629 L 509 629 L 511 627 L 517 624 L 518 622 L 520 621 L 533 608 L 536 601 L 540 596 L 543 590 L 544 584 L 550 573 L 550 571 L 551 570 L 551 566 L 552 565 L 552 560 L 553 559 L 553 553 L 554 552 L 554 544 L 555 543 L 555 520 L 554 519 L 554 506 L 551 501 L 551 499 L 548 493 L 548 491 L 546 488 L 546 486 L 538 470 L 534 465 L 533 462 L 531 460 L 527 453 L 524 451 L 522 451 L 518 449 L 514 446 L 511 446 Z M 507 478 L 518 489 L 518 490 L 519 491 L 519 493 L 520 494 L 520 496 L 521 497 L 521 499 L 522 500 L 522 502 L 523 503 L 523 505 L 524 506 L 524 512 L 525 513 L 525 517 L 526 518 L 526 526 L 527 527 L 527 537 L 526 538 L 526 554 L 525 555 L 525 561 L 524 562 L 524 567 L 523 568 L 523 570 L 522 571 L 522 573 L 521 574 L 521 576 L 520 577 L 520 578 L 519 579 L 519 580 L 517 583 L 517 585 L 516 586 L 516 587 L 515 588 L 515 589 L 513 591 L 513 592 L 511 594 L 511 595 L 504 602 L 503 602 L 500 604 L 498 604 L 495 606 L 488 606 L 487 605 L 486 605 L 485 604 L 484 604 L 483 603 L 482 603 L 478 599 L 478 598 L 476 595 L 476 593 L 475 592 L 475 589 L 474 588 L 474 584 L 473 583 L 473 578 L 472 577 L 472 576 L 473 575 L 472 574 L 472 556 L 471 555 L 471 553 L 472 552 L 472 546 L 473 545 L 473 543 L 474 542 L 474 540 L 475 539 L 475 534 L 476 533 L 476 528 L 477 527 L 477 524 L 478 523 L 478 521 L 479 520 L 479 518 L 480 517 L 480 515 L 481 514 L 481 512 L 482 511 L 482 509 L 483 508 L 483 507 L 484 506 L 484 505 L 488 500 L 488 498 L 489 497 L 489 495 L 490 494 L 490 493 L 493 490 L 493 489 L 494 488 L 494 487 L 496 485 L 496 484 L 499 481 L 499 480 L 500 479 L 501 479 L 502 478 Z" fill="black" fill-rule="evenodd" /><path d="M 836 444 L 824 441 L 812 444 L 809 446 L 805 452 L 800 463 L 793 486 L 790 492 L 789 499 L 784 511 L 783 518 L 781 521 L 770 564 L 764 578 L 762 588 L 760 591 L 760 594 L 758 597 L 755 610 L 752 617 L 751 630 L 756 637 L 767 638 L 768 639 L 772 638 L 778 631 L 783 621 L 786 606 L 791 594 L 793 575 L 798 567 L 800 566 L 820 566 L 825 564 L 832 564 L 844 561 L 847 565 L 848 572 L 850 576 L 850 580 L 858 605 L 858 610 L 860 615 L 861 623 L 865 630 L 871 634 L 874 634 L 880 631 L 884 631 L 888 629 L 890 626 L 891 619 L 886 602 L 885 593 L 880 577 L 880 572 L 876 556 L 878 554 L 883 554 L 893 550 L 897 546 L 898 542 L 894 536 L 889 534 L 882 534 L 880 535 L 879 534 L 870 534 L 869 533 L 866 524 L 866 519 L 864 516 L 863 506 L 859 497 L 858 487 L 853 475 L 853 472 L 850 465 L 848 456 L 844 450 L 840 446 Z M 826 477 L 827 478 L 827 481 L 828 482 L 828 484 L 829 485 L 829 487 L 830 488 L 830 491 L 831 492 L 831 495 L 832 496 L 832 502 L 833 503 L 833 504 L 834 505 L 834 514 L 835 515 L 835 518 L 836 519 L 836 520 L 837 521 L 837 528 L 838 529 L 838 533 L 839 534 L 839 537 L 838 538 L 837 538 L 836 539 L 830 539 L 829 540 L 821 540 L 820 541 L 815 541 L 814 542 L 811 542 L 810 543 L 807 543 L 806 544 L 804 544 L 803 543 L 803 542 L 804 541 L 804 538 L 805 537 L 805 535 L 806 534 L 806 532 L 807 531 L 807 529 L 808 528 L 808 526 L 809 525 L 809 523 L 810 522 L 810 519 L 811 518 L 811 517 L 812 516 L 812 515 L 813 514 L 813 512 L 814 511 L 814 510 L 815 509 L 815 506 L 816 505 L 816 503 L 817 502 L 817 501 L 818 500 L 818 498 L 819 497 L 819 495 L 820 494 L 820 490 L 821 489 L 821 487 L 822 486 L 822 484 L 823 483 L 823 480 L 824 479 L 824 478 L 825 477 Z" fill="black" fill-rule="evenodd" /><path d="M 116 565 L 134 596 L 181 630 L 222 645 L 271 647 L 360 620 L 418 564 L 437 511 L 424 419 L 381 364 L 288 326 L 355 306 L 405 311 L 436 341 L 462 421 L 474 394 L 469 357 L 443 306 L 393 274 L 348 272 L 292 293 L 340 251 L 388 247 L 432 263 L 462 293 L 532 403 L 586 429 L 602 426 L 556 401 L 501 298 L 441 243 L 496 245 L 583 351 L 657 396 L 684 430 L 666 383 L 596 325 L 521 233 L 577 245 L 635 307 L 691 334 L 732 336 L 788 312 L 827 315 L 796 302 L 734 315 L 690 309 L 607 238 L 557 210 L 457 220 L 320 207 L 253 230 L 224 255 L 206 289 L 215 325 L 194 298 L 208 244 L 246 199 L 301 176 L 343 175 L 424 199 L 519 172 L 571 172 L 682 252 L 715 255 L 749 242 L 681 232 L 600 169 L 556 153 L 448 169 L 403 167 L 315 142 L 247 153 L 188 191 L 146 234 L 118 299 L 119 335 L 143 373 L 173 389 L 297 398 L 350 420 L 375 458 L 367 516 L 332 562 L 297 584 L 237 591 L 195 579 L 164 537 L 167 507 L 184 483 L 224 472 L 256 494 L 251 520 L 228 535 L 208 521 L 218 486 L 191 496 L 182 513 L 186 539 L 215 567 L 273 550 L 295 523 L 306 486 L 300 456 L 275 433 L 195 422 L 152 442 L 121 476 L 110 520 Z M 290 293 L 291 292 L 292 293 L 291 294 Z M 439 243 L 440 242 L 441 243 L 440 244 Z" fill="black" fill-rule="evenodd" /></svg>