<?xml version="1.0" encoding="utf-8" ?>
<svg baseProfile="full" height="671" version="1.1" width="1024" xmlns="http://www.w3.org/2000/svg" xmlns:ev="http://www.w3.org/2001/xml-events" xmlns:xlink="http://www.w3.org/1999/xlink"><defs /><path d="M 406 457 L 391 463 L 388 463 L 372 468 L 368 468 L 359 471 L 346 473 L 307 483 L 274 489 L 241 498 L 231 499 L 233 526 L 235 526 L 238 524 L 242 524 L 246 522 L 269 517 L 273 515 L 280 514 L 290 510 L 293 510 L 296 508 L 298 509 L 299 522 L 300 523 L 300 529 L 301 530 L 303 559 L 304 560 L 305 582 L 306 583 L 306 590 L 307 591 L 307 598 L 308 599 L 307 600 L 307 609 L 306 610 L 306 627 L 307 628 L 307 636 L 308 638 L 325 637 L 326 636 L 347 636 L 348 635 L 347 634 L 347 630 L 344 620 L 344 614 L 343 613 L 342 596 L 341 595 L 341 584 L 340 583 L 340 571 L 339 570 L 339 560 L 338 559 L 336 534 L 335 533 L 332 508 L 331 507 L 331 500 L 347 494 L 350 494 L 362 490 L 372 489 L 373 488 L 377 488 L 378 487 L 382 487 L 383 486 L 387 486 L 398 483 L 408 482 L 409 481 L 409 475 L 408 474 Z" fill="black" fill-rule="evenodd" /><path d="M 1022 436 L 992 429 L 990 430 L 991 433 L 990 486 L 989 492 L 987 494 L 930 498 L 916 501 L 888 504 L 883 506 L 880 505 L 885 442 L 853 443 L 852 529 L 850 543 L 849 586 L 846 610 L 859 611 L 871 610 L 871 596 L 874 577 L 874 554 L 876 547 L 911 538 L 945 534 L 984 522 L 989 522 L 991 528 L 991 569 L 988 589 L 1002 590 L 1013 588 L 1019 585 L 1021 558 Z" fill="black" fill-rule="evenodd" /><path d="M 623 427 L 571 436 L 495 444 L 467 453 L 469 499 L 469 587 L 467 607 L 488 605 L 546 593 L 561 592 L 575 589 L 607 587 L 615 585 L 607 569 L 599 547 L 594 547 L 570 556 L 494 577 L 490 577 L 488 574 L 491 558 L 492 530 L 500 526 L 518 524 L 519 500 L 494 499 L 494 473 L 497 471 L 500 474 L 511 475 L 550 474 L 640 460 L 630 446 Z" fill="black" fill-rule="evenodd" /><path d="M 818 422 L 808 427 L 787 433 L 771 442 L 756 448 L 753 445 L 746 445 L 736 440 L 723 436 L 710 437 L 703 441 L 691 454 L 683 469 L 679 482 L 677 503 L 676 504 L 676 514 L 675 515 L 675 540 L 678 552 L 682 559 L 685 568 L 690 576 L 698 584 L 716 594 L 732 599 L 753 598 L 765 595 L 778 590 L 786 577 L 798 553 L 798 551 L 795 547 L 783 536 L 777 533 L 770 532 L 768 534 L 763 551 L 759 558 L 745 558 L 744 557 L 729 555 L 717 551 L 710 544 L 708 538 L 708 517 L 709 516 L 710 503 L 716 487 L 723 479 L 732 475 L 749 473 L 755 471 L 761 471 L 764 474 L 769 482 L 774 494 L 776 496 L 789 473 L 792 470 L 795 469 L 803 452 L 805 450 L 805 448 L 818 425 Z" fill="black" fill-rule="evenodd" /><path d="M 919 190 L 896 190 L 895 191 L 888 192 L 876 196 L 864 202 L 855 208 L 843 218 L 831 230 L 827 236 L 821 250 L 821 253 L 820 254 L 820 257 L 817 266 L 817 270 L 816 271 L 816 276 L 815 277 L 815 282 L 814 283 L 814 288 L 813 289 L 812 303 L 813 304 L 813 312 L 814 313 L 815 321 L 817 325 L 817 328 L 822 338 L 829 347 L 837 355 L 845 366 L 851 372 L 867 381 L 879 385 L 882 385 L 883 386 L 889 386 L 890 387 L 906 387 L 907 386 L 913 386 L 914 385 L 918 385 L 919 384 L 927 383 L 932 381 L 941 380 L 942 379 L 945 379 L 954 376 L 962 372 L 972 364 L 972 316 L 967 325 L 965 326 L 963 324 L 964 296 L 965 295 L 965 272 L 966 271 L 966 251 L 967 250 L 967 236 L 968 235 L 967 221 L 961 209 L 953 201 L 946 197 L 944 197 L 935 193 L 927 192 L 926 191 L 920 191 Z M 949 350 L 950 349 L 951 350 L 950 351 Z M 924 217 L 926 219 L 929 220 L 932 223 L 932 224 L 934 226 L 934 227 L 935 228 L 935 230 L 936 231 L 936 234 L 937 235 L 937 246 L 936 247 L 937 248 L 937 259 L 936 260 L 936 265 L 935 266 L 935 268 L 934 269 L 934 272 L 933 273 L 933 276 L 932 277 L 932 279 L 931 280 L 931 282 L 930 283 L 930 285 L 929 286 L 929 288 L 927 291 L 927 293 L 926 294 L 926 295 L 925 296 L 925 297 L 924 298 L 924 299 L 923 300 L 923 301 L 922 302 L 921 305 L 919 307 L 918 310 L 916 312 L 916 313 L 914 315 L 914 316 L 902 328 L 901 328 L 899 330 L 898 330 L 896 332 L 895 332 L 892 334 L 890 334 L 889 335 L 887 335 L 886 336 L 884 336 L 883 337 L 871 337 L 870 336 L 867 336 L 866 335 L 863 334 L 858 330 L 857 330 L 852 325 L 852 324 L 849 321 L 849 320 L 848 319 L 848 318 L 845 313 L 845 311 L 844 310 L 844 308 L 843 307 L 843 304 L 842 303 L 842 300 L 841 299 L 841 276 L 842 275 L 842 271 L 843 270 L 843 268 L 844 267 L 844 265 L 845 264 L 845 262 L 846 261 L 846 259 L 849 254 L 849 252 L 850 251 L 850 250 L 852 248 L 852 247 L 853 246 L 853 245 L 855 243 L 855 242 L 858 239 L 858 238 L 869 227 L 870 227 L 875 223 L 876 223 L 877 222 L 880 221 L 882 219 L 884 219 L 885 218 L 886 218 L 889 216 L 891 216 L 892 215 L 895 215 L 896 214 L 903 214 L 904 213 L 906 213 L 907 214 L 914 214 L 915 215 L 918 215 L 919 216 L 921 216 L 922 217 Z" fill="black" fill-rule="evenodd" /><path d="M 133 186 L 138 203 L 152 211 L 197 212 L 247 199 L 277 198 L 399 224 L 431 259 L 448 299 L 459 351 L 451 412 L 475 403 L 499 370 L 508 334 L 505 292 L 494 276 L 456 248 L 415 202 L 388 182 L 356 177 L 304 184 L 279 176 L 280 171 L 301 158 L 331 145 L 344 145 L 400 164 L 526 239 L 540 252 L 569 331 L 570 385 L 592 374 L 603 342 L 580 242 L 570 219 L 548 193 L 500 167 L 533 171 L 551 181 L 600 245 L 666 301 L 723 361 L 727 362 L 729 321 L 722 305 L 684 277 L 658 250 L 616 181 L 587 164 L 544 160 L 534 155 L 512 156 L 453 136 L 342 129 L 283 135 L 204 153 L 170 155 L 150 178 L 149 202 L 137 192 L 135 180 Z" fill="black" fill-rule="evenodd" /><path d="M 0 155 L 0 261 L 29 278 L 66 283 L 46 309 L 38 328 L 36 359 L 41 377 L 55 401 L 76 421 L 98 432 L 130 439 L 204 434 L 302 407 L 321 391 L 332 374 L 354 303 L 350 290 L 331 273 L 260 249 L 200 247 L 111 262 L 71 248 L 60 236 L 48 208 L 47 188 L 55 168 L 92 135 L 156 107 L 193 99 L 281 93 L 466 111 L 532 122 L 589 141 L 616 158 L 696 224 L 725 239 L 752 246 L 791 241 L 809 231 L 832 208 L 813 219 L 749 221 L 734 211 L 717 179 L 702 165 L 674 147 L 616 121 L 487 73 L 361 53 L 318 55 L 251 68 L 143 73 L 104 80 L 53 104 Z M 242 315 L 246 321 L 248 326 L 248 339 L 247 340 L 246 347 L 241 357 L 233 368 L 225 376 L 218 381 L 206 386 L 203 386 L 202 387 L 188 387 L 187 386 L 181 385 L 177 383 L 169 375 L 166 369 L 165 363 L 164 362 L 164 355 L 165 354 L 165 351 L 170 342 L 176 336 L 182 332 L 184 332 L 185 331 L 184 329 L 178 330 L 170 334 L 168 336 L 165 337 L 160 342 L 156 350 L 156 353 L 155 354 L 156 368 L 159 376 L 166 385 L 177 391 L 179 391 L 189 395 L 190 396 L 189 398 L 182 399 L 181 400 L 175 400 L 174 401 L 166 401 L 165 400 L 158 400 L 157 399 L 147 397 L 136 392 L 130 388 L 122 381 L 122 380 L 117 375 L 113 369 L 113 367 L 111 363 L 111 350 L 112 349 L 113 342 L 121 328 L 135 315 L 162 302 L 164 302 L 168 300 L 171 300 L 172 299 L 180 298 L 181 297 L 186 297 L 187 296 L 202 296 L 203 297 L 208 297 L 209 298 L 213 298 L 214 299 L 217 299 L 218 300 L 223 301 L 234 307 Z" fill="black" fill-rule="evenodd" /></svg>